<?xml version="1.0" encoding="UTF-8" standalone="no"?>
<!-- Created with Inkscape (http://www.inkscape.org/) -->

<svg
   width="210mm"
   height="210mm"
   viewBox="0 0 210 210"
   version="1.1"
   id="svg1"
   xml:space="preserve"
   inkscape:version="1.4.2 (ebf0e940d0, 2025-05-08)"
   sodipodi:docname="icon.svg"
   inkscape:export-filename="public/icon-512.png"
   inkscape:export-xdpi="61.927616"
   inkscape:export-ydpi="61.927616"
   xmlns:inkscape="http://www.inkscape.org/namespaces/inkscape"
   xmlns:sodipodi="http://sodipodi.sourceforge.net/DTD/sodipodi-0.dtd"
   xmlns="http://www.w3.org/2000/svg"
   xmlns:svg="http://www.w3.org/2000/svg"><sodipodi:namedview
     id="namedview1"
     pagecolor="#ffffff"
     bordercolor="#000000"
     borderopacity="0.25"
     inkscape:showpageshadow="2"
     inkscape:pageopacity="0.0"
     inkscape:pagecheckerboard="0"
     inkscape:deskcolor="#d1d1d1"
     inkscape:document-units="mm"
     inkscape:zoom="0.52114899"
     inkscape:cx="428.86008"
     inkscape:cy="414.46881"
     inkscape:window-width="1920"
     inkscape:window-height="1051"
     inkscape:window-x="0"
     inkscape:window-y="0"
     inkscape:window-maximized="1"
     inkscape:current-layer="layer1" /><defs
     id="defs1" /><g
     inkscape:label="Layer 1"
     inkscape:groupmode="layer"
     id="layer1"><g
       id="g5"
       transform="translate(-0.98671102,0.97837775)"><path
         id="path4"
         style="baseline-shift:baseline;display:inline;overflow:visible;vector-effect:none;fill:#387d38;fill-opacity:1;stroke-width:1.42162;enable-background:accumulate;stop-color:#000000"
         d="m 139.42728,21.431074 c -4.28263,0.01294 -5.76132,0.173834 -8.43009,0.883045 -3.74982,0.996505 -7.39781,2.684888 -10.76773,4.95887 -1.47313,0.994074 -3.11747,2.362142 -4.6143,3.745968 -1.49685,1.383824 -2.75445,2.61888 -3.62696,3.936973 -2.50846,3.789415 -4.50234,7.048032 -5.47239,9.09126 -0.13235,0.278674 -0.27907,0.520355 -0.42169,0.805174 -1.49392,-2.955736 -2.72935,-5.110959 -5.55613,-9.374099 -1.842302,-2.778414 -5.71211,-6.392876 -8.585832,-8.30225 -3.285244,-2.182804 -7.022539,-3.888208 -10.686909,-4.856018 -2.651409,-0.700275 -4.157671,-0.865626 -8.282414,-0.874964 -5.564752,-0.01265 -8.999925,0.61483 -13.902465,2.543349 -13.773264,5.418009 -23.863771,18.032312 -29.252187,35.776587 -5.461915,17.986327 -7.502886,36.262276 -7.160607,63.382441 0.110344,8.74283 0.232827,13.81868 0.60535,17.09525 0.186262,1.63825 0.410517,2.8487 0.919043,3.98472 0.508527,1.13603 1.560102,2.18803 2.546288,2.63737 1.739403,0.79254 2.88254,0.46896 4.567303,0.19174 1.684759,-0.27721 3.809156,-0.7886 6.60301,-1.55747 6.3709,-1.75325 11.615681,-3.97269 17.040143,-7.21642 8.55976,-5.11856 16.184814,-13.30841 20.174884,-21.79919 4.56613,-9.71664 5.973855,-16.901502 6.650028,-33.619667 0.7029,-17.378975 1.279225,-21.985152 3.303708,-27.532369 0.570746,-1.563869 1.424324,-3.13013 2.182639,-4.162512 0.207625,-0.282666 0.336946,-0.390377 0.508378,-0.577433 0.114102,0.05894 0.190012,0.06476 0.299729,0.146931 0.690144,0.516893 1.519004,1.301073 2.101826,2.02689 2.194035,2.732344 4.015489,6.982961 5.486348,13.563794 1.501823,6.71937 2.20753,19.185952 1.719072,33.078237 -0.575112,16.356759 -1.640262,30.974799 -3.243468,44.620269 -0.334925,2.85071 -0.507966,3.85708 -0.557595,4.23156 -5.100646,1.23769 -10.057308,3.35041 -13.939195,6.06965 -2.89238,2.0261 -5.677705,4.43917 -7.368513,6.57803 l -0.31149,0.3938 -3.03189,0.0199 c -4.715216,0.0285 -6.95446,0.43204 -10.60096,1.90495 -5.754297,2.32425 -10.651284,7.05955 -13.250099,12.77184 -0.551893,1.21308 -0.975001,2.65606 -1.305467,4.03468 -0.165236,0.68932 -0.295424,1.3429 -0.379814,1.95196 -0.0422,0.30452 -0.07558,0.59408 -0.08375,0.92492 -0.0057,0.23252 -0.04889,0.44857 0.03601,0.84337 v 0.11969 l 0.185866,0.48269 c 0.0011,0.002 0.0016,0.006 0.003,0.008 0.390055,1.01657 1.013526,1.34367 1.344404,1.52146 0.330881,0.17777 0.53026,0.22793 0.696447,0.27256 0.332372,0.0894 0.538369,0.11214 0.775052,0.13888 0.473365,0.0534 1.022251,0.0841 1.83221,0.11382 1.619923,0.0594 4.229413,0.10004 8.457994,0.13008 8.457166,0.0598 23.362568,0.0728 49.326413,0.0728 16.39787,0 31.32135,-0.0288 42.15992,-0.0728 5.41929,-0.0221 9.81741,-0.0459 12.8725,-0.075 1.52756,-0.0145 2.71727,-0.031 3.5432,-0.047 0.41296,-0.008 0.73166,-0.0154 0.97708,-0.0251 0.12269,-0.005 0.22232,-0.01 0.34456,-0.019 0.0612,-0.005 0.12026,-0.008 0.25566,-0.0277 0.0677,-0.01 0.14474,-0.0152 0.33865,-0.0668 0.097,-0.0257 0.45435,-0.16331 0.45549,-0.16382 8.1e-4,-5.2e-4 1.23756,-1.09339 1.23789,-1.0939 h 0.002 c 0.69465,-1.12408 0.42908,-1.25589 0.43858,-1.47442 0.01,-0.21852 0.002,-0.3613 -0.006,-0.50544 -0.0177,-0.28828 -0.052,-0.56114 -0.0948,-0.87424 -0.0855,-0.62616 -0.21655,-1.38228 -0.38055,-2.18852 -1.4839,-7.29479 -6.37323,-13.61091 -13.1274,-17.05116 -4.37916,-2.23053 -6.78221,-2.76624 -12.84458,-2.80708 l -4.19043,-0.0277 -0.55246,-0.53043 c -5.06099,-4.85386 -12.44356,-9.16434 -18.63653,-10.71996 -0.078,-0.0196 -0.0339,-0.0119 -0.10289,-0.031 -0.0993,-0.66747 -0.22934,-1.48469 -0.43049,-3.24566 -0.26655,-2.33334 -0.58184,-5.35249 -0.90216,-8.61301 -0.64067,-6.52108 -1.30153,-14.02064 -1.63826,-18.96419 -1.10537,-16.22887 -1.275,-36.333246 -0.4856,-43.410305 1.22435,-10.976392 3.6357,-18.031759 7.15766,-22.429517 0.35481,-0.443031 1.05598,-1.072908 1.67207,-1.487661 0.13051,-0.08785 0.22845,-0.10621 0.36071,-0.163827 0.13362,0.116178 0.22317,0.175512 0.37467,0.327653 0.66123,0.663966 1.39108,1.637487 1.68309,2.20982 2.14585,4.206175 3.40924,11.208286 3.9039,24.389555 0.64304,17.136073 1.52345,24.208652 4.0839,32.081312 2.52717,7.77035 6.6782,14.50667 12.5588,20.39968 7.55107,7.56698 16.75683,12.747 27.77701,15.6884 2.94632,0.7864 4.82308,1.25602 6.29519,1.49355 1.47212,0.23753 2.82433,0.22599 3.97299,-0.24978 1.16116,-0.48098 2.48552,-1.8159 2.97385,-3.19059 0.48832,-1.37468 0.62808,-2.79317 0.80222,-4.92286 0.54223,-6.63174 0.707,-25.78377 0.32251,-34.19711 -1.71175,-37.462714 -7.27077,-57.581871 -20.4662,-70.684074 -4.04817,-4.019563 -7.58056,-6.568256 -12.07027,-8.662961 -6.01888,-2.808148 -10.42066,-3.768613 -17.17018,-3.748172 z" /><path
         style="fill:#66bb6a;fill-opacity:1;stroke-width:1.42162"
         d="m 113.1139,150.28685 c -1.94578,-0.43184 -10.57524,-0.63187 -13.379303,-0.31015 -1.439734,0.16518 -2.708687,0.21208 -2.819898,0.10418 -0.111211,-0.10788 0.05325,-2.22482 0.365496,-4.70436 0.874697,-6.94619 1.932537,-18.65155 2.641673,-29.23085 0.880622,-13.13774 0.966722,-36.347534 0.159702,-43.046476 -1.616979,-13.422236 -5.648931,-22.847093 -10.945794,-25.586206 -1.126731,-0.582656 -1.117605,-0.839915 0.05535,-1.559237 5.082056,-3.116641 13.633074,-1.002776 15.804404,3.906937 0.38184,0.863417 0.86985,1.569851 1.0845,1.569851 0.21462,0 0.70079,-0.663061 1.08036,-1.473468 0.87067,-1.85895 2.43901,-3.282984 4.89966,-4.448851 1.7836,-0.845089 2.15284,-0.912243 4.98041,-0.905762 2.47604,0.0057 3.35669,0.129765 4.65367,0.655761 0.87983,0.35682 1.79602,0.783508 2.03597,0.948195 0.47985,0.329342 0.64082,0.161964 -2.03357,2.114719 -3.96436,2.894654 -7.35745,10.547578 -8.98703,20.269817 -1.03369,6.166971 -1.3411,11.338292 -1.33138,22.395787 0.0143,15.920653 1.32989,36.133263 3.57426,54.901843 0.29189,2.44121 0.46667,4.50265 0.38836,4.58097 -0.18523,0.18521 -0.79391,0.13534 -2.22683,-0.18273 z m -85.074932,-6.44262 c -0.406573,-0.20933 -0.874713,-0.82299 -1.061885,-1.39198 -0.92046,-2.79801 -1.509671,-23.24095 -1.001329,-34.74135 0.852314,-19.282133 2.908369,-33.313681 6.748824,-46.057424 1.698137,-5.634907 2.855478,-8.521025 5.382384,-13.422311 6.70185,-12.999171 17.637054,-21.467977 30.066985,-23.285473 1.498087,-0.219048 3.860659,-0.290273 6.225828,-0.187692 7.193687,0.312008 13.063963,2.638757 18.577471,7.363388 2.104805,1.803644 5.039983,5.145003 4.637443,5.279183 -0.166405,0.05547 -1.26267,-0.20081 -2.436148,-0.569507 -1.827363,-0.574141 -2.73894,-0.668785 -6.350989,-0.659395 -3.849233,0.01 -4.420516,0.08178 -6.54423,0.822201 -9.889216,3.447824 -15.794329,11.039697 -18.316181,23.548097 -0.987891,4.899936 -1.547646,10.663972 -1.897344,19.53776 -0.490664,12.450854 -0.862977,17.478785 -1.631272,22.029573 -2.80801,16.63249 -11.654802,29.3208 -28.182168,40.41954 -2.341099,1.57216 -3.199022,1.83973 -4.217389,1.31539 z m 153.060962,-0.50119 c -0.52053,-0.31738 -2.46078,-1.69756 -4.31164,-3.06708 -13.27747,-9.82448 -21.26797,-21.50139 -24.37406,-35.61902 -1.19972,-5.452924 -1.32005,-6.868331 -2.22555,-26.176912 -0.57121,-12.180192 -1.44805,-18.378927 -3.39215,-23.980748 -2.745,-7.909535 -7.05124,-13.130592 -13.34833,-16.184061 -3.80654,-1.845795 -6.53034,-2.401868 -10.87077,-2.219291 -2.19324,0.09225 -4.48681,0.375996 -5.75514,0.711974 -1.70348,0.451256 -2.10871,0.482262 -2.10871,0.16136 0,-0.739304 4.78248,-5.216913 7.53856,-7.058023 5.30823,-3.54597 9.50768,-4.915056 15.82639,-5.159644 6.90085,-0.267124 11.94274,0.830813 18.12212,3.946314 4.09178,2.062984 6.77267,4.048549 10.4384,7.731045 4.20878,4.228014 7.49705,9.209947 10.08515,15.279623 6.32862,14.842124 9.24105,35.784076 9.24443,66.473083 8e-4,12.15198 -0.36637,22.11036 -0.88855,24.06326 -0.46468,1.73783 -2.16258,2.2063 -3.98015,1.09812 z"
         id="path2" /></g></g></svg>
