<?xml version="1.0" encoding="UTF-8" standalone="no"?>
<!-- Created with Inkscape (http://www.inkscape.org/) -->

<svg
   width="210mm"
   height="210mm"
   viewBox="0 0 210 210"
   version="1.1"
   id="svg1"
   xml:space="preserve"
   inkscape:version="1.4.2 (ebf0e940d0, 2025-05-08)"
   sodipodi:docname="icon.svg"
   xmlns:inkscape="http://www.inkscape.org/namespaces/inkscape"
   xmlns:sodipodi="http://sodipodi.sourceforge.net/DTD/sodipodi-0.dtd"
   xmlns="http://www.w3.org/2000/svg"
   xmlns:svg="http://www.w3.org/2000/svg"><sodipodi:namedview
     id="namedview1"
     pagecolor="#ffffff"
     bordercolor="#000000"
     borderopacity="0.25"
     inkscape:showpageshadow="2"
     inkscape:pageopacity="0.0"
     inkscape:pagecheckerboard="0"
     inkscape:deskcolor="#d1d1d1"
     inkscape:document-units="mm"
     inkscape:zoom="0.52114899"
     inkscape:cx="110.33313"
     inkscape:cy="445.1702"
     inkscape:window-width="1920"
     inkscape:window-height="1051"
     inkscape:window-x="0"
     inkscape:window-y="0"
     inkscape:window-maximized="1"
     inkscape:current-layer="layer1" /><defs
     id="defs1" /><g
     inkscape:label="Layer 1"
     inkscape:groupmode="layer"
     id="layer1"><g
       id="g5"
       transform="matrix(1.1966241,0,0,1.1966241,-14.469928,-34.395063)"><path
         id="path4"
         style="baseline-shift:baseline;display:inline;overflow:visible;vector-effect:none;fill:#0e200f;fill-opacity:1;enable-background:accumulate;stop-color:#000000"
         d="m 123.36146,58.394368 c -3.01248,0.0091 -4.05261,0.122278 -5.92987,0.621151 -2.6377,0.700959 -5.20376,1.888599 -7.57421,3.488159 -1.03624,0.69925 -2.1929,1.661574 -3.2458,2.634982 -1.05291,0.973407 -1.93752,1.842168 -2.55127,2.76934 -1.76449,2.665543 -3.16702,4.957714 -3.84937,6.394958 -0.0931,0.196024 -0.1963,0.366026 -0.296625,0.566374 -1.050854,-2.079119 -1.919877,-3.595143 -3.908289,-6.593913 -1.295908,-1.954387 -4.017998,-4.496866 -6.039424,-5.839954 -2.310904,-1.535425 -4.939785,-2.735037 -7.517371,-3.415812 -1.865049,-0.492586 -2.924582,-0.608897 -5.826001,-0.615466 -3.914348,-0.0089 -6.330712,0.432483 -9.779248,1.789038 -9.688365,3.811127 -16.786213,12.684258 -20.576522,25.165906 -3.842011,12.65191 -5.277668,25.507549 -5.036902,44.584359 0.07762,6.14988 0.163775,9.72032 0.425814,12.02511 0.13102,1.15239 0.288765,2.00383 0.646472,2.80293 0.357707,0.79911 1.097404,1.53911 1.791105,1.85518 1.223528,0.55748 2.027632,0.32987 3.212724,0.13487 1.185091,-0.195 2.679431,-0.55471 4.644678,-1.09554 4.481408,-1.23329 8.170682,-2.79448 11.986348,-5.07617 6.021092,-3.60049 11.384693,-9.36138 14.191382,-15.33395 3.2119,-6.83486 4.202119,-11.88883 4.677751,-23.64869 0.494433,-12.224689 0.899831,-15.464757 2.323889,-19.366772 0.40147,-1.100053 1.001896,-2.20179 1.535307,-2.927986 0.146048,-0.198833 0.237014,-0.274599 0.357601,-0.406177 0.08027,0.04147 0.133661,0.04555 0.21084,0.103353 0.48546,0.363592 1.068495,0.915199 1.478462,1.425752 1.543322,1.921981 2.824563,4.911942 3.859196,9.54102 1.056411,4.726528 1.552819,13.49575 1.209229,23.26783 -0.404549,11.50565 -1.153794,21.78825 -2.281515,31.38672 -0.235594,2.00525 -0.357313,2.71314 -0.392224,2.97656 -3.58789,0.87061 -7.074495,2.35674 -9.805086,4.2695 -2.034553,1.42519 -3.993801,3.12258 -5.183146,4.62711 l -0.219108,0.27699 -2.132687,0.014 c -3.316769,0.02 -4.891894,0.3039 -7.456909,1.33997 -4.047678,1.63492 -7.492308,4.96582 -9.320361,8.98395 -0.388212,0.8533 -0.685833,1.86832 -0.91829,2.83807 -0.116229,0.48488 -0.207807,0.94461 -0.267168,1.37304 -0.02968,0.21421 -0.05316,0.41789 -0.05891,0.65061 -0.004,0.16356 -0.03439,0.31553 0.02532,0.59324 v 0.0842 l 0.130741,0.33952 c 8.14e-4,0.002 0.0012,0.004 0.0021,0.006 0.274372,0.71508 0.712932,0.94516 0.945679,1.07022 0.232748,0.12505 0.372994,0.16033 0.489893,0.19172 0.233797,0.0628 0.378699,0.0789 0.545186,0.0977 0.332973,0.0376 0.719069,0.0592 1.28881,0.0801 1.139483,0.0418 2.975046,0.0704 5.949508,0.0915 5.948924,0.0421 16.433656,0.0512 34.697107,0.0512 11.534554,0 22.032014,-0.0203 29.656064,-0.0512 3.81203,-0.0155 6.90574,-0.0323 9.05475,-0.0527 1.07451,-0.0102 1.91138,-0.0218 2.49235,-0.0331 0.29048,-0.006 0.51466,-0.0109 0.6873,-0.0176 0.0863,-0.003 0.15638,-0.007 0.24236,-0.0134 0.043,-0.003 0.0846,-0.006 0.17984,-0.0196 0.0476,-0.007 0.10181,-0.0107 0.23822,-0.047 0.0682,-0.0181 0.31959,-0.11488 0.3204,-0.11524 8e-4,-3.7e-4 0.87052,-0.7691 0.87075,-0.76946 h 0.002 c 0.48863,-0.7907 0.30183,-0.88343 0.30851,-1.03714 0.007,-0.15371 0.002,-0.25415 -0.004,-0.35554 -0.0125,-0.20278 -0.0366,-0.39471 -0.0667,-0.61495 -0.0602,-0.44046 -0.15232,-0.97232 -0.26768,-1.53944 -1.0438,-5.1313 -4.48306,-9.57417 -9.23406,-11.9941 -3.08037,-1.569 -4.77073,-1.94583 -9.03511,-1.97456 l -2.94762,-0.0196 -0.38861,-0.37311 c -3.55999,-3.4143 -8.75304,-6.44636 -13.10928,-7.54062 -0.0548,-0.0138 -0.0238,-0.008 -0.0724,-0.0217 -0.0699,-0.46951 -0.16132,-1.04435 -0.30282,-2.28306 -0.18749,-1.64131 -0.40927,-3.76504 -0.63459,-6.05855 -0.45066,-4.58704 -0.91553,-9.86237 -1.15238,-13.33975 -0.77753,-11.41568 -0.89686,-25.55747 -0.34158,-30.535603 0.86123,-7.720995 2.55742,-12.683869 5.03483,-15.777332 0.24958,-0.311636 0.7428,-0.754704 1.17616,-1.046448 0.0918,-0.0618 0.1607,-0.07471 0.25373,-0.115238 0.094,0.08172 0.15698,0.123458 0.26355,0.230477 0.46512,0.467045 0.97852,1.151837 1.18391,1.554427 1.50943,2.9587 2.39813,7.884113 2.74608,17.156059 0.45233,12.053828 1.07162,17.028808 2.8727,22.566578 1.77765,5.46581 4.69756,10.20427 8.83408,14.34951 5.31156,5.32275 11.78706,8.96648 19.53886,11.03551 2.07249,0.55317 3.39264,0.8835 4.42815,1.05058 1.03551,0.16708 1.98668,0.15898 2.79467,-0.1757 0.81678,-0.33832 1.74837,-1.27733 2.09186,-2.24431 0.34349,-0.96698 0.44182,-1.96476 0.5643,-3.46284 0.38141,-4.66488 0.49732,-18.13677 0.22686,-24.05486 -1.2043,-26.351966 -5.11461,-40.504148 -14.39653,-49.720478 -2.84755,-2.827433 -5.33229,-4.62023 -8.49044,-6.093685 -4.23379,-1.975302 -7.33007,-2.650911 -12.07782,-2.636532 z" /><path
         style="fill:#66bb6a;fill-opacity:1"
         d="m 104.85215,149.03387 c -1.3687,-0.30376 -7.438813,-0.44447 -9.411243,-0.21817 -1.012736,0.1162 -1.905339,0.14919 -1.983566,0.0733 -0.07823,-0.0759 0.03747,-1.56498 0.257097,-3.30913 0.615278,-4.88608 1.359379,-13.11985 1.858199,-20.56152 0.61944,-9.24132 0.68001,-25.567516 0.11234,-30.279674 -1.137412,-9.441446 -3.973565,-16.071063 -7.699472,-17.997805 -0.792564,-0.40985 -0.786141,-0.590811 0.03893,-1.096795 3.574805,-2.192303 9.589752,-0.705371 11.117092,2.748211 0.2686,0.607343 0.61188,1.104261 0.76286,1.104261 0.150973,0 0.492953,-0.466409 0.759943,-1.036464 0.61246,-1.307619 1.71565,-2.309311 3.44651,-3.129403 1.25462,-0.594451 1.51436,-0.641688 3.50331,-0.63713 1.7417,0.004 2.36116,0.09128 3.27348,0.461275 0.61889,0.250993 1.26335,0.551133 1.43214,0.666978 0.33754,0.231664 0.45076,0.113928 -1.43045,1.487531 -2.7886,2.036153 -5.17536,7.41936 -6.32164,14.25816 -0.72711,4.33796 -0.94335,7.975562 -0.93652,15.753605 0.01,11.19888 0.93547,25.4168 2.51419,38.61896 0.20534,1.71719 0.32828,3.16724 0.2732,3.22233 -0.1303,0.13029 -0.55846,0.0952 -1.5664,-0.12853 z m -59.843257,-4.53185 c -0.285991,-0.14725 -0.615289,-0.57891 -0.74695,-0.97914 -0.647467,-1.96817 -1.06193,-16.34811 -0.704352,-24.4377 0.599533,-13.56341 2.045799,-23.433458 4.747247,-32.39764 1.1945,-3.963696 2.008595,-5.993844 3.786066,-9.441498 4.714203,-9.143855 12.406227,-15.100967 21.149667,-16.379427 1.053781,-0.154083 2.715657,-0.204184 4.37936,-0.132026 5.060171,0.219472 9.18943,1.856149 13.067733,5.179541 1.480556,1.268717 3.545216,3.61909 3.262062,3.713475 -0.117051,0.03902 -0.888187,-0.141254 -1.713634,-0.400602 -1.285396,-0.403861 -1.926617,-0.470436 -4.467401,-0.463831 -2.707619,0.007 -3.109469,0.05753 -4.603328,0.578351 -6.956255,2.425262 -11.11002,7.765525 -12.883937,16.564161 -0.6949,3.446705 -1.088642,7.501233 -1.334626,13.743218 -0.345142,8.758158 -0.607034,12.294898 -1.147467,15.496008 -1.975206,11.6996 -8.1982,20.62477 -19.823851,28.43184 -1.646772,1.10588 -2.250251,1.2941 -2.966589,0.92527 z m 107.665887,-0.35255 c -0.36617,-0.22325 -1.73097,-1.1941 -3.03289,-2.15743 -9.33962,-6.91072 -14.96029,-15.12448 -17.14516,-25.05508 -0.84391,-3.83568 -0.92855,-4.83131 -1.5655,-18.413315 -0.4018,-8.56777 -1.01858,-12.928074 -2.3861,-16.868497 -1.93088,-5.563711 -4.95997,-9.236298 -9.38946,-11.384164 -2.67759,-1.298366 -4.59356,-1.689517 -7.64669,-1.56109 -1.54277,0.06489 -3.15611,0.264483 -4.04827,0.500816 -1.19827,0.317421 -1.4833,0.339231 -1.4833,0.113504 0,-0.520041 3.36407,-3.669673 5.30275,-4.964742 3.73391,-2.494301 6.68788,-3.457341 11.13257,-3.629389 4.85418,-0.187899 8.40075,0.584409 12.74743,2.77591 2.87823,1.451141 4.76402,2.847823 7.34257,5.438158 2.96052,2.974062 5.27355,6.478445 7.09406,10.747966 4.45168,10.440221 6.50033,25.171173 6.50271,46.758383 9.5e-4,8.54793 -0.25771,15.55283 -0.62502,16.92654 -0.32686,1.22242 -1.52121,1.55194 -2.7997,0.77243 z"
         id="path2" /></g></g></svg>
